<mxfile host="65bd71144e">
    <diagram id="ZRgNgkGBJunc0q0rqTIc" name="Page-1">
        <mxGraphModel dx="909" dy="603" grid="1" gridSize="10" guides="1" tooltips="1" connect="1" arrows="1" fold="1" page="1" pageScale="1" pageWidth="1654" pageHeight="2336" math="0" shadow="0">
            <root>
                <mxCell id="0"/>
                <mxCell id="1" parent="0"/>
                <mxCell id="2" value="" style="rounded=0;whiteSpace=wrap;html=1;" parent="1" vertex="1">
                    <mxGeometry x="270" y="100" width="260" height="480" as="geometry"/>
                </mxCell>
                <mxCell id="3" value="ECStack(调用栈)" style="text;html=1;align=center;verticalAlign=middle;resizable=0;points=[];autosize=1;strokeColor=none;" parent="1" vertex="1">
                    <mxGeometry x="270" y="70" width="110" height="20" as="geometry"/>
                </mxCell>
                <mxCell id="4" value="" style="rounded=0;whiteSpace=wrap;html=1;" parent="1" vertex="1">
                    <mxGeometry x="310" y="440" width="190" height="120" as="geometry"/>
                </mxCell>
                <mxCell id="5" value="GEC(global exection context)" style="text;html=1;align=center;verticalAlign=middle;resizable=0;points=[];autosize=1;strokeColor=none;" parent="1" vertex="1">
                    <mxGeometry x="310" y="410" width="170" height="20" as="geometry"/>
                </mxCell>
                <mxCell id="8" value="VO(variable Object): GO" style="rounded=0;whiteSpace=wrap;html=1;align=left;" parent="1" vertex="1">
                    <mxGeometry x="320" y="440" width="170" height="60" as="geometry"/>
                </mxCell>
                <mxCell id="9" value="开始执行代码&lt;br&gt;foo()" style="rounded=0;whiteSpace=wrap;html=1;align=left;" parent="1" vertex="1">
                    <mxGeometry x="320" y="500" width="170" height="60" as="geometry"/>
                </mxCell>
                <mxCell id="10" value="{&lt;br&gt;name: &quot;why&quot;&lt;br&gt;foo: 0xa00&lt;br&gt;}" style="rounded=1;whiteSpace=wrap;html=1;align=left;" parent="1" vertex="1">
                    <mxGeometry x="800" y="170" width="120" height="60" as="geometry"/>
                </mxCell>
                <mxCell id="11" value="GlobalObject" style="text;html=1;align=center;verticalAlign=middle;resizable=0;points=[];autosize=1;strokeColor=none;" parent="1" vertex="1">
                    <mxGeometry x="820" y="140" width="80" height="20" as="geometry"/>
                </mxCell>
                <mxCell id="12" value="[[scope]]: parent scope&lt;br&gt;函数的执行体(代码块)" style="rounded=1;whiteSpace=wrap;html=1;align=left;" parent="1" vertex="1">
                    <mxGeometry x="800" y="340" width="130" height="70" as="geometry"/>
                </mxCell>
                <mxCell id="13" value="存储函数空间(foo) 0xa00" style="text;html=1;align=center;verticalAlign=middle;resizable=0;points=[];autosize=1;strokeColor=none;" parent="1" vertex="1">
                    <mxGeometry x="785" y="310" width="150" height="20" as="geometry"/>
                </mxCell>
                <mxCell id="14" value="" style="endArrow=classic;html=1;" parent="1" source="10" edge="1">
                    <mxGeometry width="50" height="50" relative="1" as="geometry">
                        <mxPoint x="940" y="200" as="sourcePoint"/>
                        <mxPoint x="860" y="339" as="targetPoint"/>
                    </mxGeometry>
                </mxCell>
                <mxCell id="15" value="" style="rounded=0;whiteSpace=wrap;html=1;" parent="1" vertex="1">
                    <mxGeometry x="300" y="230" width="190" height="140" as="geometry"/>
                </mxCell>
                <mxCell id="16" value="函数执行上下文(FEC)&lt;br&gt;Functional Execution Context" style="text;html=1;align=center;verticalAlign=middle;resizable=0;points=[];autosize=1;strokeColor=none;" parent="1" vertex="1">
                    <mxGeometry x="300" y="190" width="170" height="30" as="geometry"/>
                </mxCell>
                <mxCell id="17" value="VO(variable Object): AO&lt;br&gt;scope chain: AO + GO" style="rounded=0;whiteSpace=wrap;html=1;align=left;" parent="1" vertex="1">
                    <mxGeometry x="310" y="230" width="180" height="60" as="geometry"/>
                </mxCell>
                <mxCell id="18" value="{&lt;br&gt;num: 123&lt;br&gt;m: 10&lt;br&gt;n: 20&lt;br&gt;}" style="rounded=1;whiteSpace=wrap;html=1;align=left;" parent="1" vertex="1">
                    <mxGeometry x="610" y="170" width="130" height="90" as="geometry"/>
                </mxCell>
                <mxCell id="19" value="AO(Activation Object)" style="text;html=1;align=center;verticalAlign=middle;resizable=0;points=[];autosize=1;strokeColor=none;" parent="1" vertex="1">
                    <mxGeometry x="600" y="140" width="130" height="20" as="geometry"/>
                </mxCell>
                <mxCell id="20" value="开始执行函数代码&lt;br&gt;console.log(name)" style="rounded=0;whiteSpace=wrap;html=1;align=left;" parent="1" vertex="1">
                    <mxGeometry x="310" y="290" width="170" height="60" as="geometry"/>
                </mxCell>
                <mxCell id="21" value="当我们查找一个变量时,真实的查找路径是沿着作用域链来查找" style="text;html=1;align=center;verticalAlign=middle;resizable=0;points=[];autosize=1;strokeColor=none;" parent="1" vertex="1">
                    <mxGeometry x="610" y="40" width="340" height="20" as="geometry"/>
                </mxCell>
                <mxCell id="22" value="" style="shape=image;verticalLabelPosition=bottom;labelBackgroundColor=#ffffff;verticalAlign=top;aspect=fixed;imageAspect=0;image=data:image/png,iVBORw0KGgoAAAANSUhEUgAAAeIAAAHECAYAAADlHCmIAAAgAElEQVR4Aey9d3McSXYt/j6OGMQQJEh4wluC8IQjPEAQoAFBgAQJ0HvvLeg9OTRDzHBmx+7MUDsa7WhXs/tWT9oXGytt6L2QnkKKVXC/wC8if3EKcxPZ1VVtYLq6UeePiqxKnzdP57mZeTP7f/xVUqriQxkQA8QAMUAMEAPeYOB/UPDeCJ5y907uHaONqmd3i+rc0RSghNZ0V1r+CEvJzg4Im21/rd/fqobP96i6dVVzmq9bvVIys3RbansDy3Rrv1te9PcOq5S9P2RPIuaKQEyIIZ4GlInvxtWNv9llPWa9jr8c0v5ljeVzKper3+y08h6/0T+n+Zr1N98La4t1W05Obg0o0639Znq++4MA2M/x0c8kYhJxwCDthx+mGxGRiONjUPIDBtlGYs3EAImYREwi/gkDJGIOjubgyHfiIVYYIBGTiEnEJGLfYSBWAyzLIZlHggFPiLi/YqcarNyravO7XQeAlGX5VhzEy8+oCYj33pIstbZ4gzrcfFVd7X6uHvR/qk603VKbKner3NTVAXGdhLCufLuV9+qcVisu0gxVH1C3131o5TdSc1glL1sZNh+nvE2/91Ky1ObhPdaTk1+h0rKKVN/GUXX64h11+cYTNbbvpOVnpjHfUzML1fpNo+rwyatW/Ku3nql9R86r3oERlZKeF1S/5JRsXV5xeZ06dOKyunzzqRrctk8tXpKmKuta1bGzE5bfpuHdQeml7EVJqWpt5wa168BpK+65q/fVyNghlV8caPQj8RPNjXZpuqJ1lerZ1ayaN9e5ysyUQU55gRW/Z7xZLU6eGojMPeKkZWmqYX21Gr2yTmEWvu1Cj8KerpkH3nU+u5rVipycoHCJX1xfMlXermb13vJ0Kx73iEkAgg+68Y8FT4j4+cZv1C/H/6S+2vY718EFxIg4eMqzp61bM1aUaH8Jt7vrV+1wzRegfDv6eyuP42tvqO21Rx3zu7nudcg8IgF3Zk6pevXxW+sZ3nlQvT/5c/0t/s8//NqR4Np7B4PiShq4yKuiujmgjll55a5pLk48Vi/ffBsQvm38SEB6tCkrt0zdfjgZEM8st39wZ1CaSGQRT3GiJeKh013a8GnxkvA/6pHzPVZ8lPNXScsteQkR77kzoE58MG0UJkZjcBs2BCqcBVVFutwtJztd5X7m4xEr3rW3Y0rqRyIO30/xhEnWxd/95QkRY+Yq5CmzUjsQX25+a8X5fOTHgAEoO3WVTouZ8NGW6xaZHmm5pn6x8w86rKdsJCCdmb8Q8eSW73X8V5t/oa50PVNPNnxp+d3p+8g1vZlXqHeTiIXMzl99YM1qH7z/M012Zy/fCypr/eYdVjjI88L1R2rPobNq2/hhazYtecHFTFvqYBIx0p26cFu9+OgbXQ7iYzYufo9efKbTIo+lK3IUFAPJ/8b9V2ps7wl18PilAP/m9tlb/i5OzVNVt55F9eRsDq1giRzCuW5EfOzlFk18pQ2lWjZVnau1f2FN8MzVXt7pj4at+CdfT1srCxEL8Z76cNg6znT0+XSZiLPIRvTnP9tu5YUwezn4zi7J13UbudCj46CeUpZZD6Rxa79T/vTzN0Gw/2PT/54QMZadhYiPr72pBw/p9OzUch2+e82ZgHCk3bXmtEpPKQrwR9plS3P0bBckK/nZXSFi1OGb0X8MmHEjLsrvKpseRO3pI/22E3Fd8/RAuTg5Xd1/+rEmPSwHm/liGXlgy5jC8rbpj/eKmhad7sCxizrcJOKBwTHLv6tvSMfFEjXSg0iFbLGcLfmDcMUfioD4w03JyFfPXn9lhT/94AuF+pvh0b4n55Wpps++i+opOzsxqzKljli+TV6RqZdxxR9LxvDHIzNZhOFbSK17PHAVQtKKCyIVott8okPX1yRizLAlPtzRy+t0/uXNgcemusaadFhF26qAdEg7dGZ6tg5SNvOVtqBdpr9b+804fA/8PVIelMd8YsATIkaD7vS9scgWpGgnoR11xzURR7LnawrocMs1ndb0N99NIl5T0BswSJnxZvtuEvG128+Dytm0dbcmvvSV4WdaZn0ePPvESnvz/iudr0nEIGvEL1m1RpdR2zC1vJlbtFr7SblLV6zUfpiBm2XJO/aJhahX1611jCNxw7mL0/NUxeW7UT3Z62evHIWrl1v4hc+nZqb77m3Q7QYxjk+sV+aycX7l9HIy9pYlPyHi678YV3ZixF6wEP3arfU6DdImp2ZqYt//YGNAGJQFyff0G/cVIKkDXZIJMRCfGPCMiDtLhzRh1uYFzhA+HvrBCns9+J1t4JkWYnJytmor3qSGaw4pkO+p1tvWI0vamO0mLclwTC9E/Onwrx3D5wqsJhFv33U0qCxzZlpa0RAUjnqAKHv6RxTSw2jr6Onr1iOzU8yqpb4mEReW11r+JumWVzVafshTCLWwdGpfEvvN4nfvyRt18Phly9gLBl+HTlyxnjOX7uo4oYy9pD4Lyd15rc8iy8s/n14pOPh4kyZQuYmrc0ej9ktaNr1qIISJ/WG7XEDMQsS4gcsevufugA4HMUs4FAFJ1zYSSOASh+70mEFZUBbxigHPiDhpSZb6fuyPFuGe73ioB5eCjBpN0DDYchIcyNfcD5ZlbrsLsnZKL0Q8F/vATvmLn0nEvQPbgupS29iliU1msJIWS9Inz9/U4UKSdhd7zZLGJOKcwqm94/ScYNJNScvT+Qo5o372vEN9Y89ayvWD27SpVpPeFBkuV5jdChG2Dk8R4e7bU6R57tPtAfIRIoaxlpO8JJ8Nh9uDwrFfLeEgekmP2Tn8sRRukr6E0yXxEAOJgQHPiBgAudT5xCJdkOri96ZmD3sbz2siTk0p1IOOAMo09AKRX+x8rMbqT+qjTrB2FkJ2O4IkRIxZtOQ7H65JxNirtZcRiogvXHuoiREW0pgNj4wd1seTYGgFonz4/FOdbwAR/2TEZc5+C36a/S5LDSbioe37dXlHTl1VW7btC/nYFQd72yL5XlpcraJ5kjIC90AjKWOu4qTm5WgyhPEWjgyBBK9+O2a5Bx5OLRtf+nLU+t5+aZ3uF9RBiNjtikshWiciRvpLX+2w8j37yZRCh/1f2Yt2y3Ou2s58EmMwZz8lbj95SsTYnxXSbC6assT9YuS3lt/jgc8DBjIBmYTj6JMTUR9suqzzDEfEOL4k+c6HO1MiNtPh7DDOANvrh+XjuSRinBuWGTDe7eXN9beXxlozbYuQKYyw8IA8O0cbrZkxZsemUVfDQOBRJEnrRprhiLhv31qrPMTLKctXbSMN+ru4tmTe+2umMmO6xCUH9l3s+s5TIoaRlsxOr3a/r8qyGzWJ4tINOxBArELcu2zW1BL3/vpPdJxEJeLWro2aFKvXBC9VwmJZzgTP1YwYl3UIEQ/vPBQke5HvXLmJSMQwlgIR4hIOObu7YmW2OvBwaq+4/0CbJkfZMxZ5zZaI8W9KQtY4pyxHpC5+MTrvfSVtoBu7gZmy9pesPSVigA2zUpArlpmxVCxE67S/ixu1JHyiZ9paWEBblFmnwxEvUYm4sbVPk+LGrbuCBtrBkb06fK6IGLNuuXAEbtJSZ0M3yHq2R5ekv5ILVqnkgoqIH1haS1ovXPMoEUgRltSoByyd8S1LxaZBl9RztkSMfA4+mjYOE1Jet2fKOl7KoeuvAZz9vTD623Mixq1ZQq7iOpGsAE6WphEXS9uLk6aWbZEPlqslD7iJSsSmgRX2gnEESdq/bkOgUdVcETHy71y3RRP87UeTATd+yRWZuHwERC318ZObWzF9zAhEiDO8aL85W4U/rJztcpkLIq5oq9CzYiHiZenB58ztZfN7YQzW7MeF24+eEzHAhduzTAJtKQoeyASE6yt2BsSFoZcsbyMPHEmSvBKViNFW86gQloxBfrIcDVdmr3NJxCgXRCtL1HBxCxcu8LD7SX/4zTUtpc3bt2BEJeTYvi34KNpcEDFkfeXrqf81RlmHn24OIny/9Qfbu3DJyU99GxdEjNuzhDxNC2q3jthec0QffTLTDdcctP74QfzCETGux3QrYy78TYtlzDbtedas6dAEZ783GhdsnDx/S4cLEeL8MPaNxaraPL5kGnll503d0JSWXaTzkD9twFWWkl/p6mDS6Owb0kQv8cTFRSK42MPeFr98yzWYIGTz9q3Nx6eMt0CQ9huuIBshUFwA4iQrIfGBQ22O4ZJG7rFG/NrehfEnHNI2uiRVv2IgLoh4JsIHyeKe6o6SQZWfvnAHJBAprsaEJTPeZyKrmabBvz/VNXUp/AEFbtLC90zzYrq5GWTFSAzHpuz3UlPGcyNjypFyjDUGEpaIYy0olscfp9cYKFkzfbHH1jPufyHqdT1ZPn8rxEB0GCAR2/5sgQCKDkCU1/zKC3/QkJaXo3BzlyxvY1kafpT9/Mqe8qV8Y4UBEjGJmAN6HGNg8GSnNgKTfWSn+6hjNWCwHJITMTD3GCARx/EgTMDPPeATTaamERgsszt3NFFx4m+WGFhgGCARL7AOTTSiYX2pbBADxIDfMUAiJhFTuyYGiAFigBjwEAMkYg+F73ctkO3nTIgYIAaIgVRFIiYRUxMmBogBYoAY8BADJGIPhU9NkLMBYoAYIAaIARIxiZiaMDFADBADxICHGCAReyh8asLUhIkBYoAYIAZIxCRiasLEADFADBADHmKAROyh8KkJUxMmBogBYoAYIBGTiKkJEwPEADFADHiIARKxh8KnJkxNmBggBogBYoBETCKmJkwMEAPEADHgIQZIxB4Kn5owNWFigBggBogBEjGJmJowMUAMEAPEgIcYIBF7KHxqwtSEiQFigBggBkjEJGJqwsQAMUAMEAMeYoBE7KHwqQlTEyYGiAFigBggEZOIqQkTA8QAMUAMeIgBErGHwqcmTE2YGCAGiAFigERMIqYmTAwQA8QAMeAhBkjEHgqfmjA1YWKAGCAGiAESMYmYmjAxQAwQA8SAhxggEXsofGrC1ISJAWKAGCAGSMQkYmrCxAAxQAwQAx5igETsofCpCVMTJgaIAWKAGCARk4ipCRMDxAAxQAx4iAESsYfCpyZMTZgYIAaIAWKAREwipiZMDBADxAAx4CEGSMQeCp+aMDVhYoAYIAaIARIxiZiaMDFADBADxICHGCAReyh8asLUhIkBYoAYIAZIxCRiasLEADFADBADHmKAROyh8KkJUxMmBogBYoAYIBGTiKkJEwPEADFADHiIARKxh8KnJkxNmBggBogBYoBETCKmJkwMEAPEADHgIQZIxB4Kn5owNWFigBggBogBEjGJmJowMUAMEAPEgIcYIBF7KHxqwtSEiQFigBggBkjEJGJqwsQAMUAMEAMeYoBE7KHwqQlTEyYGiAFigBggEZOIqQkTA8QAMUAMeIgBErGHwqcmTE2YGCAGiAFigERMIqYmTAwQA8QAMeAhBkjEHgqfmjA1YWKAGCAGiAESMYmYmjAxQAwQA8SAhxggEXsofGrC1ISJAWKAGCAGSMSzIOJt40fU5RtP1IYt4wtKmxzbe8JqV+/AtgXVLg54HPCIAWIgHjEQV0S8JLNM5a8/pir2PFHVh15bT07H7rgkg+LyOvXq47fW09jaN+91TF2Rqd5LTou6HKRJT8+MKt3WHQesdr18861KyciPKm08gpx14uBLDBAD8YyBuCHinPZx1TP5TvV8+JeAp/7sN3FJBDfuv7LI6smrLyKuX299iXpzrEN9ebpLfXG6S6WkpLumzc/JVme21Km/udSrfnezX/3Drannx4k+9eJgq0K4E7ByMrPU1W1r1Ndnu9Vvb6zX6ZDHL6+sU/t6q9TiJaF/lEtXrFQgYSgaR05fcyzHqWz6hZYr5UP5EAPEgBMG4oKIF6dkq+4P/qwJuO3BH1Xtic+tJ6/3UNwRQWVdq0VSIKpNw6Fn7IuSUtXQ2lUWoQqZipsZYqYqcUK5/Q2lQbLpri3W5OuW9rtLvSp5aejZ9ZFTV3Ub07KKgspxAhP9OMgQA8QAMRA9BuKCiNMrezUJlw1fj/tB/+zlexZJYdaYnOI8MxUwYhbqRoiREDFmzic21aq+NaVqQ2OZen24TeeHGW9uVlaAvEDEmP1i5n1wfbUaaChT6xtK1d3xZoXZtNTlwe7mgHRSX3Fzi1ZrIt6x53jIuJKGbvQ/QMqMMiMGiIG4IOK8noOaiJeXtsb1oJ+SlqcJ6sCxi2HrKsvKv77ep/auq1IgQCHDUET8eG+Lqilx3p+9v2s6j0P91QF1WJyU6rqXnLI8XZMxSDzcAHDt9nOrre9P/jxs3HB5MZyDDTFADBADzhjwjIjz+46qkq1XrKfh0veaiFeNP9T+CM+s3+xIAouWpKv8dYdV9eFJ1XT9R1V//q0qG5lQywobHOObAADZl43eVmsufKearv+9qjz4gcrr3h82HfJo7x3URFzX3BM2zbfnutWOztV6X/b2WFNERGzW1/6+qjBX5/H8QFvYOpjpn+xbq9NmZ4Q24hoc2avbWlheG1U5Zpl8d/7xUS6UCzFADAADnhFx98v/1ORrN9Ayv52MtZJzKlXbw392Tj/5TuUPnHQljZKhy87pPvyLWnv392pJZrlrWggMxktiLZ2VWxYyrtOPbC6IuDQvR5MpiNWpHDc/LFnLjHzpstD7xA2tvbqtIGW3POnPwYQYIAaIgZljwDMiXjX+QNUc+5n1gACFfEG84g8Xy9b2Du549m86fuv9P6jKA69U/dmvA6yus1uCz8CaS+Cw0K479aV1RKrt0b/o/EDw9vLM7wfPPtHkBEMsMyyS97kg4p2dqzWZ7uxaHVEdlqWkq109lTodZurh6puTv0q39dzV+2Hjh8uP4dHjhTKjzIiBhY8Bz4jYBFd+/wlNhOFmpCaZgnzNfCyjr5+OQIFczTC8awKffKdWlE0v6S5akqbM5XEnEpe8sF+KGfHjl58H5S9xQrmzJWLMYn91bcroCvvPOK7kVh6MvJ7tb7WOMsksGC5IGLNqt3Tiv3hJmibim/dfhY0v6egu/IGDfcw+JgbmDgMJR8Qtt/6XJu2kjJIgcsCMWmbXy0umLYPTq/u0f/XRj4PSLc2t0eGNV34IChfQybL01VvPXONIXCd3tkRsGnvt66sKWYe353v0DFiI+K8v9ChcDuJUNyc/nJNGmx8+/zTiNE750G/ufrSUJWVJDCwsDCQcEXc+/38WYa69978diSG7dacm1Oy2MR0Hhl1C0Bn1m7S/Cej2x3+y4rQ/+VfHcMQVIr5w/ZFrHDNP+/tsiHhr6ypNrDjWZM/b/n16sM66/OPTE516Fg1C/s3EeleLbHseD97/2axWAOz58XthDSDsT/YnMTB7DCQcEcvtW2sufudIRKmrOjThlgxd0XHKd97T/kvznS2Amyd+Y8Xpfv3fOp0dZC8++sYiJuwV28Mi+Z4pEXfVTF/U8XdX16n0VPdbudzqgYtFZGaMM8VJyeEBJDds3Xn84Yza61YX+oeXPWVEGRED/sBAQhHxouQMTaa1p750JIZlBXU6Do5CCZBxd7XMiJ2WtBHP3CeWdHYXe8OYFYOg7GGRfM+EiOvL8vU1l5jNul1vGUn5JzfXajIebAltIZ6aWahXAC7ffDqj9kZSJ8bxx2DDfmY/EwPOGEgoIkYnYrYKQm269mtHYkiv6deEax5jwplkIWLTUMsExto7/2TFwdEq0998v3DtoSanlPQ813hmGvM9WiLGmWG5Mxouvs38on3HJSEyKz4/VB8yr6r6Nt3WXQdOh4wbbT0Y3/kHSblQLsSA/zCQcESM/VsQKiygnQBbuPGMJlzzMpCctjHtn9d9wDGtnG3GkSinvOG3cesuTU6r66I7w4v00RBxYU6OtZ8L4oSFNGbGbvWK1L+9ukgT8bkwRLx+06hua11T+D3pSOvAeP4baNjn7HNiwB0DCUfE9efeakLFcSV754JEZeaLv1WUcNMquuXm77S/hGc1Dul0OL8s/nbXvIN5cNs+13j2dPIdKRHjWBKuxZTZa2tlZH+8EM4i+tWh6buqcQe11MvJPXZmQhPxeynux6Sc0tLP/UdH2VA2xAAxYGIg4YgYR5KEaDtf/Ie+0hJXXuK6SwmrO/1VEMmYe8D4z2OcH4YwsFTd/eq/dFqQtikk+zsMl7BPHMlZYvzVYU9diX4+OT59sxWMpySsqnh6mRtnhX+4Ov1nEbd2Nin8haLT01AeOEvGPyvhiBIu7ygvyLXunYZRVmVxnjJJGMvcaanux5jMv0I8ffFOSHnY5cNvDjLEADFADESOgYQjYnRu7YnPNGmCeE0Stb4/+LNyItNlRY16j9ki7Ml3QWlxS1c4APX0j+iZIq6BDBW/paJQz2plduvkmseR8rKzI0qDfL6/HFg+iNgpf7sfFIBQ9d6yfb9uY3lVY8i4ofJhWOQ/RsqKsiIG/ImB+CDi9cc0sZrLyaFAad0Z/dMtWjILhguDq1C3c+GeanP5WqedfKcKN5yKiHAWJ6erZ6+/sojq+t0XIdM0RUjEn53q1PnkZGVFRKYg17+5FEjEsIoO9deLX57uUnVh9ppxdefTD6Yu8rj9aFLXK1R/MMyfAwj7nf1ODMweA3FBxLPpyGXFTSq3a5/CJR2LVwQu04bKNymtwPpnJ6SN5B+b7Hl19Q3pGWNecegbruxpY/GNc8Yw7sI+MI4p4T3c/rHUq6VjQLeNs+HZ/8hErnQpS2KAGHDCQMITsVOjYuV378kbi7D2Hw3/v8SxqtNclHPl1jOrXWcv3+NseAZ/7DEXfcA8OGATA/7BAImYAy3JlhggBogBYsBDDJCIPRQ+NV7/aLzsa/Y1MUAMuGGAREwipiZMDBADxAAx4CEGSMQeCt9NO6I/NWdigBggBvyDARIxiZiaMDFADBADxICHGCAReyh8arz+0XjZ1+xrYoAYcMMAiZhETE2YGCAGiAFiwEMMkIg9FL6bdkR/as7EADFADPgHAyRiEjE1YWKAGCAGiAEPMUAi9lD41Hj9o/Gyr9nXxAAx4IYBEjGJmJowMUAMEAPEgIcYIBF7KHw37Yj+1JyJAWKAGPAPBkjEJGJqwsQAMUAMEAMeYoBE7KHwqfH6R+NlX7OviQFiwA0DJGISMTXhWWJg2/gRdfnGE7Vhy/iCkuXY3hNWu3oHtnnSrhUZBQp1uPP4Q/Xk1RfqxUffqOGdhzypi9sASn+S61xgIK6IODWlUPWUjahda06rA82XrGdt8Qb+8H4iivUVO9WOuuOqsaBvQctkSWaZyl9/TFXseaKqD722npyO3XHZ5uLyOuu/m199/FY1ti6sftm644DVtpdvvlUpGfkxlf/iJWnqwfs/07KFfPGM7TsZ03rMxSDLPEjW4TAQN0TcUjSgvh/7o/rl+J8CnvMdDxfEDy85OVvlpq5WOekVM27Pp8O/tmRzqfPJjPMIBwivw3Pax1XP5DvV8+FfAp76s9/EZZtv3H9lEQRmbF7Lbq7LX7pipQIJgwCPnL4W0/ZV1rVqEr5665kqLK9Vy1LzFAh6rtvJ/EiUXmMgLoj4vSVZ6u3o7zUBv9j0rTrRdst6OkuHFsQPb135dt2+9JSiGbVpoRPx4pRs1f3BnzUBtz34o6o98bn15PXG35KkSRabhuNzxj7bAebIqauaENOyZobbmdRhYMuYLhckPJM8mIYEmygYiAsiLs9u0iS1pWr/gvzRzQURb685oo62XFcLRTmx/0jSK3s1CZcNX497HJy9fM8iC8wak1Oy476+dnlH8p1btFoT4o49x2PWxpGxw7pczMwjqSvjkHgTFQNxQcQdpVs0ERdk1CzIH91cEHGigizSeuf1HNREvLy0Na5xkJKWp4niwLGLcV3XSOXvFu/a7edWW9+f/HnM2mkScdLSjJiV6yYD+pPk5xMDnhFxd+mwGqzcaz1Xup5pIt5Zf1L7I7w6tyPgR4g91g2V42pg1bha/F56QBgEVZK1xgoH8dkFJ2VW5barpCVZqrV4ozq+9oa6v/4Tdbj5qirNbghKY88DZXaUDKrdDWfVzd7X6k7fR9Ys1cmASspDO0K1cVOl87LmsqU5qm/VaNCzOicykqrN67IM3yZ6Xik8Y/UnFdpub5N8Q9aoa9dP2wH4Rjshn1Ntd1Rb8SbXtJJHtG5+31FVsvWK9TRc+l4T8arxh9of4Zn1mx3LXrQkXeWvO6yqD0+qpus/qvrzb1XZyIRaVhi+L0H2ZaO31ZoL36mm63+vKg9+oPK6I1uRae8d1ERc19zjWDdTFlX17aqhdZ0qKK1Ri5PTVUV1s+rbuF2BcHoHRlROvrPtQH5JtUL+FTUtjmWUrm6wwksq1uhwEBfKwpOVV6bWbdyuto4eUI1tfWpRUqrKL6lS/YM7p/zWrtPpzPqa74Mje3VbY7VMTCIm8ZkYXOjvnhHxV9t+p8nXbqBlftuNtcyZJays7R20p+GcztceJmUiz4f9n+l4ZnltJYNBeUo+IPmPh35wTIc8nm74KiCtlGfm7/YuZZguFAOn+OGMtaBknG2/75gW+WF520mJudDx2Erz+ciPFoE7lQ2FxazjbN+7X/6nJl+7gZb57WSslZxTqdoe/rNz+sl3Kn/A3cK2ZOiyc7oP/6LW3v29WpJZHrKdMF4SS96s3LKQcSGjvYfPqQPHLqmNQ7sUjjvh3f6srlsblM/GrbuseHsOnQ0KQ747dh+3wpGn9MWKzIKgvKWsLdv3K8zg5Rtua9dGnVbyMN2G1l7dVpCyGTZf77sOnNZlckZMUp4vnMVLvp4R8Y66E9ZsFDPSJxu+1KQBkoSfPFi2NoU1F0QsBAPixDEpzGrFD+SJWYNZJt7zM2p0HMSVtPsaL6g7fW+sMBhTmekibePhFmeL1MwVZQrykEesysMRMWav0p4vRn6rjrRcs8jXVAzQbrOueBcilrRoD9LaSR3W3/a0M/1eNf5A1Rz7mfWAAIV8QbziDxfL1vYyOp79m47fev8PqvLAK1V/9usAq+vsluAzsOYSOCy06zZuj14AACAASURBVE59aR2Ranv0Lzo/ELy9PPP7wbNPNFE44cWMi3chYiHA0V3HVE//sNq646AmRcSx5zV7Ir5okf/+oxd0OagD8hW/3QdOh2xrTv4q3dZzV++HjGtv90y/bz+a1GXaZTLTPJkueFyjTOJDJp4RsQkAk1zDWRSbcWc6IwbR7G08HzCgYJYoBOS0fPt44HMdjuVis/54x2wZBGj3l2+z3uHaKGnsbiRW0xkrSnQ9P9rytwrL25LPipQCJXmA1FOWBZ4NNYkYyhFm1pIW57lFPjjnLf5z6eb3n9BEGG5GapIpyNesh2X09dMRKJCrGYZ3TeCT79SKsjYdvmhJmjKXx51IXPLCfilmxI9ffq7TS5iTaxJxV1/gSYB1A9s1SWLp2kw/WyKua+628quqb9NlYIkaZZRVNmq/ULNOHBmS2f/N+68C6mfWda7e07KLdHkPn3867+XNVb2ZT3yQWiL2gy+J+Bc7/xBAMug4c8aLS0XMzizLbtQkdLX7/YAwM16o91gR8WjdcV1Xp8tQ0DYh1M2VgcuMJhE77ZfLETPM0EO1daZh0RBxy63/pUk7KaMkqD6YUcvsenlJsw5Pr+7T/tVHP9b+UueluTU6vPHKD0HhEk+ICWdcxS+UK0SMWSj2iM246TnFmhCr1wTu4c+WiHOLqqyysvPLdRmyz5ueXaT9UtLzAupk1g/vOCeNNs8XMQ4MjlmXdZw8f8u6QQtlwRq96SelwV4ffpP0FhIGfEnE2B+2dyJmf0JQwzWBZ1YxA5awSA2l7PnHiojPtN/TdXVa0sOZbWmLfUncJGJ7/fE9ueV7Ky2W4p3CZ+sXDRF3Pv9/FmGuvfe/HeuS3bpTE2p225iOA8MuIeiMemfjs/bHf7LitD/5V53O3jYh4gvXH7nGMdMIEZt7uRIOYpYl65b2/oD8ZkvEsn9tkm5u4ZRhGMhXys3MLQ0oV+omrtxyFekKgKSL1EW+IlO41+++UFl5offpI82b8Uja8Y4BXxKx24xOCArXSJodd6DxoiYv+3KuGS/Ue6yI+EH/p1Zdvxn9x4A2mHWTveYbvYHLjELE2Fc248v7843fWHk7KTISZzZuNEQst2+tufidY11TV3Vowi0ZuqLjlO+8p/2X5jtfFNE88RsrTvfr/9bp7O3CvccgDOwV28OcvoWIYazlFC6EaDecmi0RY5kX5aWk5weRLs4+S7lCzk51g5/csIV7n93izMYf7YRBGhQbIWTIGJemzCZfpiUJJwIGfEnEmDU6dY4bEYebZTrlZfeLFRG/2vwLiyzthmNmfUDSaCv2vU1/IWJYTZv+8h4vRLwoOUOTae2pLx3ruqygTsfBUShpA+6ulhmx05I24pn7xJLO7soMDgRlD3P6FiIeGNzpGF8Icc6J+KfbsAJmvzlTs9/k5VkREXFqZqEmx8s3nzrW36nNM/Wrrm/X5d198tG8lzfTejIdSX6uMJBwRNxbvs0iERCJk9HT0ZYJHW4XklgNR0vEo7XHdJ7ZqatmNDDEiohxthmywT64vf3yLQoHiFf84CYKEaOumK2CUJuuBVqqS3vSa/o14ZrHmHAmWYjYNNSSdHDX3vknKw6OVpn+5vuFaw81WYTbX0W6mRLxhqFxiyzdji+N7z9lhZtL3ubxJbmWcjZEDEMvmaXiWJEph/l6f/TiM6vMSBWd+aoH8yXZxgIDCUfEuFRCiKQgM3hp8fa6D3W4XYAzJWJc/CFl4pIOe76RfJsKBI4lRZLGHkcsnkMdX8K+r9QVVtL2PLJTy3X47jVnAsITiYixfwtChQW0vY34Ltx4RhOueRlITtuY9s/rPuCYVs4240iUU97ww1KqkJPT+V97upkScd/GUYtoYeRlzxPfcgRpPol4/aZR3da6pi7HejjVbTZ+UDxEvqEsumdTBtOSZOMFAwlHxBUrWzSRgNxMQWL/VvY/QUZmGN5nSsTpKcW6TJChkxEU8g+1f1yb363zqMnrDKqbva5O35EQsTnzHq09GlQOjm0JUdutqhOJiOvPvdWEiuNKdnmBRGXmi79VlHDTKrrl5u+0v4RnNQ7pdDi/LP5217yDeXDbPtd4km6mRIylalm2tv8VIW7TkrD5JOJjZyY0Kb6XMn2kTdo2Hy5v1iJJzgeu4jXPhCNikJ0QCfYys1KnBlnM/syLQeaSiNF5uOpRyn228ee6XIQtXZqjYNCFW7fcOhr1lPQvN79VRZl1jrdbuaWHfyREjBuzROGAUtJUOG2Fa97p7aRQJBIR40iSEG3ni//QV1riyktcdylhdacDbzuDHM09YPznMc4Pwx9L1d2v/kunBWmH6g8YLmHWFokl8UyJuKyyQZMtrqlMWjp19AmXbEieIOP5ImLzrxBPX3Q/Jx9KTjMJM4k4VuQ/k3oyDRWGucBAwhExGi2EIcQm51vxLSSEd7uAJCzaPWLkg+NNIFApEy7KFcMnfIPc7GWa37BSNtOb72Y8vGP/2wwP9W43rsJd0WZ87BfjMf2ai6YJWsoWudrzk/B4MdaS+tSe+EyTJojXJFHr+4M/KycyXVbUqPeYLcKefBeUFrd0STlubk//iJ4p4hpIt3jwF9KM1lgLqy9YppWZL1xZjsZVlfI+X0SMKzFlibi8qjFkG0O1P9ow828QM38yLos2D8YnSSYKBuKCiM1LJpz2Ne3CxKzYflc0Zn8jNYcV9j1BOPi2p8OxHIS53YAlRAXjLHtafGNQ3F57NGD5W9KAkIeqnfccJa/kZSutmfUnW38VlIfEEddcDpcy3Fyno0rVue0BSomkBcnibyelHNPFsS7Ec1MosBKAcByRMtPN1Xv++mOaWM3l5FD5W3dG/3SLlsyC4cLgKtTtXLin2ly+1mkn36nCDaciah/O/z57/ZVFVDj3GqqeQqb9m8NZTW8Iygd/3CBELoS87/B5hYs5duw+ZpH0trHDOh2WsCUeLJ5RL/xblPilryy2/JJTpq2mcwqDjRCB96cfTF3kgSsnQ7VvrsMaW9dpBWDz8J6Ylj3XbWF+VAjCYSAuiDhcJd3C8U9MMN7CzVdu+7ZuaWfrD4OrpsL1CvusMBpbnDS1vDnbfOc6ffryEque+HcoJyvzuS7Pq/yWFTep3K59Cpd0LF4ReHVnqDolpRVY/+yEtJH8Y5M9L1xXKTPGvOKpW6zscebie1FSmsLtWDAMk7PBc5FvqDxaOgZ022I5G0adlqXm6Ru2IF9YUUPZwb9ehaozw0h6iYiBhCbiRBQ467zwBop7T95YhLX/6ML6X+Irt55Z7Tp72fnc/XxjGYqArDiIsjO+z/0ftea7Psx/4f1246VPScQO/7QUL53DevCH73cMYKULS+mYkePe6Zyfruf0u1zY/oU1NpCIScRc6iMGiAFigBjwEAMkYg+FT612YWm17E/2JzFADMwEAyRiEjE1YWKAGCAGiAEPMUAi9lD4M9GcmIYaNzFADBADCwsDJGISMTVhYoAYIAaIAQ8xQCL2UPjUaheWVsv+ZH8SA8TATDBAIiYRUxMmBogBYoAY8BADMSdi3A6EZyZaA9NQ2yQGiAFigBhYaBggEXuoBS00MLE9HCCJAWKAGIgeAyRiEjFXJ4gBYoAYIAY8xACJ2EPhU3OMXnOkzCgzYoAYWGgYIBGTiKkJEwPEADFADHiIARKxh8JfaFod28OZCjFADBAD0WOAREwipibsEQZy8lepyzeeWM/SFTnz0g8FJdVW/heuPVTJy7PnpQwOvNEPvJQZZWZigETs0SBsdkK8vCenZKvjZ2+oE+duBjw79hyPywG8YvdjVXfm68Dn9FdqcUpiEM7FicfW//3ef/rxvMk3aWmGevHRN1Y5uw+embdy4gXDrAcJLhExQCImEevBOTWz0Bqw5U/YxX304jMdJ55A3vn+v6ueD/8S9LyXXhSX9TVlV1nXqmXd0z88r/XddeC0Liszp3ReyzLbyHeSIjEQGQZIxCRiPTAvTk5XA1vG9IOZGsg4Xok4t2ufKtp83nrWXPxOE3IiEPGN+68s2T7/8GsFuc/ngJWWXaSJ+Mjpa/Na1ny2g3lHNqhTToknJxIxidh1YD57+V5cE7E54BRtPJMwRJxbtFoT4+juY67yN9s32/dzV+5bZb58863CFsRs82P6xBvs2Wfx22ckYhKx66BMIp6fH+7+oxc1Eadk5LvKfy4HzrLKRl3m+s07YlLmXNafec0PFinX+JCrb4kY+6F9G0fVgWMX1bXbz9WF648UjFmKy+tcB6kVGQVqw5ZxdezMhLp665k6cuqq6h/cqZal5jmmeS8lS20e3mM9OfkVKi2ryCrz9MU7liXr2L6Tll+oHwOsaYe271cnz99U1+++UJcmHissL2Jf0a1cya+uqUuN7T1htQ3tg9FVVX2bY10ljenOhIhX161VI2OH1bmr99Xlm0/V+P5TqrahM+IyzfKjeZ/JjHh5aasqG72t1lz4TjVd/3tVefADlde9P2xdk3MqVdnIhGq88oNquPS9Khm6rJZkrlLpVetU4YZTKqdjd8g8sNSPJf87jz8MGQ9yA37Qj8AqLKyBudKKBgVsjYwdsnB49PR1VVBaEzIvyFKMtpBPNLJl3PgYrNkPC7cffEnE7b2DelASgyTTBUHaQV+9pl1hP8+MJ+/PXn+lyqsag9LAMEbiDO88qN6f/Ln+Fn/kmV9cFZQW5a9p6VFYSpS4dvfBs08c02GQhuWzPb58Hzx+OaJ9yWiIGGVCQZEy7C6Uh/ncC42WiEGeToZe8Ft79/dqSabzH5OkV/ep7tf/HZS288V/WGSO9Hi340e+MQMW2UAhE38n98yluzqupIELQoVSZvoBR+GOQN178sZKg/RO5dFv4Q707Nv47lvfEfH6TaMBAxhmipg1gpzuPvnICgOhmMBNzykOSoPZM2YWMhiCMO3LjCYRS7zzVx+ofUfOqwfv/0ynBeGZ5eHdPHaCtNfuPFfj+06qnXtPWLNNlIc87OnwbRLi0w++UAePX7LaB4VB6rH38DnHtGZ+0RCxSQyY8SF/yMhsJ1YfzPzn8j0aIs7rOThNpJPvVN2pL1X1odeq7dG/aP+2h/8cVFcYgfVMvtNxGq/+Sq3e+0ytvfNP2i8cETe39+s+CHcszCRiYFMMvKQPIVuszMg3FMxQMpX+RPycwoqQcUPlw7D4HtTZP4nXP74iYizlyvIcZhAV1c1BgxEGs607DgT4m8TW0z8SELZx6y49EIJgzR+BnYjrmnt0OGaHYpWMgXGRba+6obVX57vn0FmdTvJHWxpb+4L8TaUBA7W5fI2l9ccvP7fydVIcJG9xZeAOZzXd0jGg63rqwu2Ame/iJWnWErWQhdvsX8qcqRsNEXc8+7cp4px8p1aUTS/VL1qSZi01y0w5u2VbgHxBuhJWvCVQqag9+bkOCzUjxlaGyKJz3ZaA/O1tFyLGSoqEPXn1hZUeOBbMYGUEeYZTdKBwStnRbFFI2XQTb4BnnyVGn/mKiLGnJgPRwOCYHtzCgVWWh91moDI4gtzNvEwixj60GYb3TVt36/qkrywOCO/sG9Jh3eu3BoTZ8zG/t40f0enWdm4ISgdFQmSA8s209vdIiVgUCsy4MZO354NleylzdNfRoHB7/Jl8R0rEWFoWMq0+GnyRxtLcGh2OPWCzLt2v/ssKcyLaJZllOp1TuOSzfddRLQvs9Yq/kytEPHHvpY535acZ8O2Hk9oP+/GQ78nzt7SfU35dBqbaujeFjOuUnn6JMaiznxKvn3xFxNiTw4AFYsVMLRLAmpdcYEbhlMa0gsVeqcQxiRgDsPiLay5T2gdlfAt5YXkZM/WlK1YG5SF5iYubsSSdUxtRPwkPN4OKlIhFUYEigiX+QyfM54o6dOKKLhO3SUld59KNlIjz1x3WhJlR70xG7Y//ZMVpf/Kvuq6LkjN0uuqjb7S/2QYsZ4dbmob9gcg/3OqAELFpXCWki60KKRsEjDxhyCd+Ti4UMykbip5THPol3iDOPkv8PvMVEcseMJZnIwVvRU2LHrzcjn3AqlkGONN61STi3oHAZU6UX9vYpdOhHHudMNhKvuJimRhL4FAQ7PHxLXu15nKmPZ4QZzhSjISIzaVwqWMoF31gr89cfEdKxOU772lCXZpf61iX5onfWHFglCV1W1bYoNOVj97W/hIOF5bX4Yh40/D0KggUMTO9/V2IGOQrYVj6h3xN0oUhHPxMcpb4pguDQembuqZunacZh++JP6izDxOvD31FxLKEHA0ZmHu1bnt65r4fri6UH4JJxFgWFH9xwxExZrS9AyNK6i2DKFyQ6bbxw0F5imVsKGVDrLdh/CN1cXIjIeKSVWv04A4lYMu2fSGf+VoSjZSIYZQlS9NJGSWO7ceRJIkjcllR3q79SrZecUwH461wRIyVDelHKHCSv5OrifjKNBHL7NdUonCkCXmGI+JjZ6et2kMd03OqC/0Sb3BnnyVOn/mKiCOZLdrBW1haowfOwZG9jgMn9j1lcAX5Sh6zJWLJBy6sXLGnK/uxUl7xqnpdHuJhpoSwUEdUJG244zOREHHy8pW67ViWNusczTsMj6B4mE806SMlYpCokKxpqGWWJVbQ3S//U7cnaUW+Tle5/4X2D0h39/dhiTivuErLC+d/zfT297km4ps/XauJ/nfay7eXz+/EGcjZV4ndV74iYnOvEkuqkYAX1wEKcbkNnDJgIp65LzuXRGzW1bR+hdW2GYZ9X6mv0/J1dl65DsdxKDOt/V3OIofbU8feMMp0Mkiz5+n2bVqmI69wltr2fPL7jmqiTK/sdW1XTtuYjpfXHWgdL3mCgEHWrff/EJCPHF1qufm7AH+kg8V19wd/DkvEiCvyCrciIbjC9ZRSt9nMiOX42u1H04Zeki/dxB7I2X+J3X++ImIsiwpJgWTcwJuSFnhTFoylkA6zTPtMAgZUsudqt6qeLyLG/p60Y3jnoYB2YC9awnDDlb2NONsr4U5W1WZ808IXVySaYeY7/utW8gy15BnqQg/TyAx5hVpaN8uWd9Ma2m0PF3FNq2gnQs1qHNJEXXMs8Jy27AGDpJcVBK5E4A8oZKYdymoadRCDK+DJVNykLeLOJRGbf/wQTgGT8ukm9uDO/kuc/vMVEQOYOPYhpIG9NfPP0q0/ar/51LoQwwQx/pFI0mAfDsuxCAdh33rwgQ6z7wPPhohx8QjqiqNLpiU2/jDAbIO5J406gexk5gMFwTQIMvcnQXRyDtVsq/lu/lUflAwQN45Z4THrZM6yUTb21c18UGcYmIF43Ih6tkS8eHmuvmwDM9Oy4esKV1Emr1ytktIKAupj7gFX7HlizWZRXyxVyxElkCpI22xHemWPJlvMmrMat6qk9GJlkbBx0Uc4IjYVKTtmzPLmkojNv0JEf5nl8D1xBmz21cLsK98RMfZ8xVhJyBXkAZKQb/vNWiA3EJGEwxWyEz/cG2wnttkQsXlRiJRnr7fb0qZ5Bhlp0TazffAzCTrUj9u8uUnaCtc+27bXF0oAjMxktUDSzhcRow1l229qopTZKVz7zHdZUWPgNZWT7wIIGGkqDzgbslUfnnQsA2nkopBwRIy6igEejOvc5D9XRAz8Sv+HM+hyqwv9FyYBsF/jo199R8QAHm6bkjPFQhDignDtMzqkwQzQPmuTNDg367TsipmjxHGyuK5Z06HD7bd8Vde36ys3JQ9xQW7YC5aZudOPCXdj25UFpAcB2MtySi9+aBeuqxTikDrYl8QRv3R1g5JbniSeuKgL5GRf9pdyZrtHLPnk959Q7U/+TwBZNt/8n0Fkh9ky9oBNwrbeJ99Zf9wg+Tm5+A9ks4y2B3+0ZsUy0+54+n+DyrPns3Fo+kY2t/4QjIKQJT3+/AMyxdWs4ie2D1CaxM90122Y3q7AH0iYYXyPj4GY/eDvfvAlEQvosT+Hc7/YOwb5Ymlawtxc7BHjpigs8+LSDScCdks7E3+QLcrDsjDqCbILRcD2MqAMNLX1qcbWdQr7hPbw+fhG/XAuGsoH/kEonpdCsWydWb/ZIlKcFY5GHotTshUeSSPE3nT9R+0nYXYX2MP2AEjVPCdsjzcX37KaMxtjurmoB/PwN9mw/93739dETGC4A4OyiU425hWXWL6ORH64K1xWDML9c1Ik+TnFMW9oC3eTl1N6+kWHA8qL8poJBkjEtj9bmIkQmcY/P776c28VrrjEBR/S70vzawKWud1u7JL4dP2DF/Y1+zoSDJCIScSaUCIBjN/jyPKz7C3b/5u4Ytf03q3fZcX2k4SIgcgwQCImEZOIo8BA+Y472jpayBgujLey145SllHIkoN0ZIM05bTw5UQi5sBB8pgBBvBvTLC8XlZQp88hc8Bc+AMm+5h9PB8YIBHPYBCej45gnvyBEwPEADHgTwyQiEnEnBETA8QAMUAMeIgBErGHwqf260/tl/3OficGiAETAyRiEjE1YWKAGCAGiAEPMUAi9lD4pkbEd2rIxAAxQAz4EwMkYhIxNWFigBggBogBDzFAIvZQ+NR+/an9st/Z78QAMWBigERMIqYmTAwQA8QAMeAhBkjEHgrf1Ij4Tg2ZGCAGiAF/YoBETCKmJkwMEAPEADHgIQZIxB4Kn9qvP7Vf9jv7nRggBkwMkIhJxNSEk1LVIuKAOCAGiAGPMEAi9kjwpjbE99lpx+8lp6m966rUF6e71Jenu9TjvS0RDSibmsvUm2Md6jcT69U/3OpXf32hR02MNqplKekRpWe/za7fKD/KjxiYwgCJmEScsKQDwjy+sVYTKcgUzw9X14Vt0+6eSiuupDHdt+d7VMpykjEHSRIlMRAbDJCIScRhSSsef4yleTnqtzemZrImiUZCxGsrizQJYzYMUl7fUKo+PNqu/TFTjsd2s06xGRgpZ8o5lhggEZOIE5JwGsrzNWliBtu3plT9zaVeyy/cjPjloVadtqmiULd/cVKq+rur63RYdkamDovlj5JlkQSIAX9hwDdE3F+xUw1W7lW1+d2ug2vKsnwrDuLlZ9QExFuRUqDWV+xUx9feVDfXvVZ3+t6og02XVW/5NoV0oX44yctW6nyzUsssw6CKlS1qd8NZdX/9J+p8x0PVVbZ11gZDySnZavPwHuspLq9Th05cVpdvPlWD2/apxUvSVGVdqzp2dsLy2zS8O2SdQ7UnHsIqi/Os/eC2qiLdjkiIOCUlXRPtV2cCsQBSNmfXJzbV6rzjoc2sg78GZ/a3f/rbN0T8fOM36pfjf1Jfbfud6+A6VH3AioN45dlNOl5H6RbtjzD7883oPwbEt/+AQOqSpq14k7q3/mP9Lf5wt1Tt12Xa84jkOyuvXL36+K3jc3HisXr55tuAsG3jR2ZVXiR1imWcSIi4p65Ek+3JzdNEu3hJqrW3bBIxjL9iWX+W5Z+Bl33NvjYx4Bsi3lS5W5Pf6pxWxwH25ea3VpzPR34MCMdsGkT5/dgf1UTPK3Wg8aIarT2mLnQ81nkiPCdtVUA6EbRJxK82/0Ln9WTDl+pK1zP1evA7y2+45qBjesknnGsSMUj31IXb6sVH3wSQ7+mLd7Tfoxefzao81Ce1oUNV3XoW1bO8unnW5TrJIhIiHu2o0EQMUpZ8Tg/WWf7Yd/5xos96//5yrw6XeHQ5gBIDxMBcY8A3RIzlY5l9YnnZLsjs1HIdvnvNmYBwEPeGynH13pKsAH/kgSVmyfdwy7WgcMQxiRhxn274SqWnTC+pIk5Vbrv12OsVzbdJxAODY1ZduvqGNBFjiRr5Nbf3az8sZ0dThj1uzuYdqumz76J6sno2zapMex3kOxIixnKzzHrry6a2FIrzcrTf1tZV6ttz3dY3DLkkb7ocfIkBYmC+MOAbIoYAsa8LInw7+vug/dgddcc1oeamro5qAJ7c8r2VFjNcp44yiRizauw3O8WbrZ9JxBU1U2dpS1at0aRb29BplZtbtFr7pa8snlVdVtSuVRWX70b1LKtYM6sy3eQUCRHf2NGoSbcwN8eqB84eg5w/PTkln09OdOg4vOiDg68b3uhPbMwVBnxFxJ2lQ5psa/MC9/8+HvrBCsMysZtw05eXqJ6yEQXSxqz6VOtt68G+MwjeLa1JxKfb7rrm71ZupP4mEReWT+1/mqRbXtVolQ3ylb3kwtJAo7RIy4rHeJEQ8d3xZk2yBTnZalv71FL17272q7zsqdWBN8emjzFh7zge28o6sV+IgYWDAV8RcdKSLGufF6QJS2UBcoFhTAWDLfEXF0vSZ9vvaxJHeqfnoy1/G5QWeZhEPNt9YKmTk2sScU5hhVWX9Jxg0k1Jy9NELOTslF+i+UVCxOeG6jURd9QU67PIh/qrdd/BmhozZOwXJ5oMWN+FMzizL/3Tl74iYgD7UucTi0R/sfMPavF7U7cn7W08r4k1NWX6XKn8EK73vNDhsJDGbHi09qg+kvTJ1l9Z4ZhVSxrTNYm4o2TQMY4Zf6bvAUSc/xMRG7Pfgp9mv8tS546IFy/PVkuLq6N6FqcE77XPtM1mukiI2LxR69fXp4yycLWluQQt+eBMsZk/3/0zMLKv2dexxIDviHhNQa8m1eaifmug/WLkt5bf44HPgwbezBVlOj72mM0BWzpKLKEjIeLW4o1BZUg+s3W9IOJEM9YaaCjTM2Ix2lpVmKv7BP0rN3Z9fTbwnPFs+4fpObgTA8SAEwZ8R8QYaGGshaXlq93vq7LsRk2068q36wFZhAXilGXo6tz2oHDMqmGAhTgk4sisp720msa+sBAw3MsjgYZjsKSWcOwnCw7ocgAlBoiB+cKA74gYgjy+9oZFnCBQGFwJ0SYnBx/laSzs0+GbKvcEDcy4hEPS+5GIscycXFAR1ePl0jT6/+ufjieBcMVyWn5gt8eaNBHXloa+MU3S0OUATQwQA7PBgC+JGLdmCXmKi4s6nASZsaJEx8VecElmvY6HGbSkh+tHInaSWaz8MLvFpRzyyJ4vLuQQP7j5OYEK1s7O1ZpscWYY1tKwjjYv+/jlCAKZ9AAAIABJREFUFe4Px6ofWQ5JzO8Y8CURo9Nxe5ZJoi1FA5pg7aAQAy+JD4MtWY6Gi28ScewHE9MCWpaTndxTm+sC+jYpOdX6H2KnuPDDUSb8qYQdB/yOfR9T5pS5HzDgWyLG7VlCrKYFtVOn408bcNxJ4ouL88PYNxararfjS7nplTrt2uIN8zbAZ+aU6mNJ2XnlVjlp2UXaL7+4yvJbuiJH+5Wubpi3+jjJci79zmyZupbSjVDF37xTWsrHDPjp/rV6ZixxYSldU0ISFjnRJRESA/OPAd8S8UzAhWsp6/O7FcjUfkXlTPJjmvkHeDgZg5Ax+4U1dWY6//YwnLwY7j1m2QcLrw9IxPw/4oSdEXNAWngDEvuUfepHDJCIScQkYmKAGCAGiAEPMUAi9lD4ftT82GbOeIgBYoAYCMQAiZhETE2YGCAGiAFiwEMMkIg9FD61wkCtkPKgPIgBYsCPGCARk4ipCRMDxAAxQAx4iAESsYfC96PmxzZzxkMMEAPEQCAGSMQkYmrCxAAxQAwQAx5igETsofCpFQZqhZQH5UEMEAN+xACJmERMTZgYIAaIAWLAQwyQiD0Uvh81P7aZMx5igBggBgIxQCImEVMTJgaIAWKAGPAQAyRiD4VPrTBQK6Q8KA9igBjwIwZIxCRiasLEADFADBADHmKAROyh8P2o+bHNnPEQA8QAMRCIARIxiZiaMDFADBADxICHGCAReyh8aoWBWuFs5LF4SapKT02f8WCyiDiYsexm029MO3e/AcoycWVJIuYAnJADMIh3fUOp+vBou/pxok/9w61+6/ndzX71N5d61Y7O1SocuW5qLlNvjnWo30yst9L+9YUeNTHaqJalzJzQORgm7mDIvmPfeYUBEjGJOCGJ+PRgnSZfIWG7+9WZbgXCdvpx7e6pdE3/9nyPSllOMnaSG/2c8US5UC6zwQCJmETsSFSzAVUs0p7ZMkXEv72xXt0ea7JmwB01xerA+mo9wwUxY4Zrr8/ayiJNwpgNg5Rldi1kjpmyPR2/OdgSA8TAfGCAREwiTkjCGWwpVwfXV6vkpWlB9S/IyVZYogapgqjtP5yXh1o1ETdVFOrwxUmp6u+urtNh2RmZOsyeB785IBMDxMBcYcA3RNxfsVMNVu5VtfndroNryrJ8Kw7i5WfUBMRbkVKg1lfsVMfX3lQ3171Wd/reqINNl1Vv+TaFdKE6JHnZSp1vVmqZtXdZsbJF7W44q+6v/0Sd73iousq2ht3TDFWGhCUtTVcNreusJy2rSC1LzVO1jV1q49Zdamj0gGrvHbT8JP5CdbF3LLPb/Jxs3T8pKenaH0vXZvtBypIG7olNtQHhZly+cxAmBoiBucKAb4j4+cZv1C/H/6S+2vY718F1qPqAFQfxyrObdLyO0i3aH2H255vRfwyIb+8ckLqkaSvepO6t/1h/iz/cLVX7dZn2PCL9TsnIVweOXbKelo4Bte/wef0t/vuOXFDpK4tnXVakdfIi3uvDbZpUczKzdFt76kq0/8nN00SLveQfjNkwiPiL0106nRdtYJkc6IkBf2DAN0S8qXK3Jr/VOa2OA+zLzW+tOJ+P/BgQjtk0iPL7sT+qiZ5X6kDjRTVae0xd6His80R4TtqqgHTyIzKJ+NXmX+i8nmz4Ul3peqZeD35n+Q3XHHRML/lE4ppELMQ7OLJX9fQPq/H9pzQpbxrePeuyUJ/Uhg5VdetZVM/y6uY5KTuUPH59fcqSGq4Zb7SjQhMxSFnCxPgLS9lihf395V4dLvHo+mNgZD+zn2OJAd8QMZaPZfaJ5WW7kLNTy3X47jVnAsJB3Bsqx9V7S6ZnVpIeS8yS7+GWawHpJI5JxIj7dMNXKj2lKCBuVW67wiNpZuraibh4Vb3Oc1FSmhrbd1KTcbjjPZHUIWfzDtX02XdRPVk9m3SdIikj2jimRTQMucz0WG6W5ef6sqktheK8HO23tXWV+vZct/UNQy4zLd85OBMDxMB8YMA3RAzhYV8XRPh29PdB+7E76o5rQs1NXR3VADy55XsrLWa4Tp1kEjFm1dhvdoo3F34mEQ/vPBRUDvaPZaackp4XFB5tHVbUrlUVl+9G9SyrWDPrct3qWZiTow21MBu2nwm+saNRk25hbo5Vjy9Pd1l+n57stL4/OdGh48yFsuJWV/pzUCcGiAFgwFdE3Fk6pMm2Ni9w/+/joR+sMCwTu/040peXqJ6yEQXSxqz6VOtt68G+MwjeLa1JxKfb7rrm71ZuNP4mEbd2bQwqq6yyURNxTr7zUno05cVTXJDud5d6NYnimJK9fnfHm3U4rKu3tU8tVcPKOi97yqjrzbFpQy+3c8j2fPnNAZUYIAZmigFfEXHSkixrnxekCUtlEVqBYUwFgy3xFxdL0mfb72sSR3qn56MtfxuUFnmYRDwX+8BSLyfXJOKahuCzsIXltZqIc4uqHOvrlG+8+4EwPzvVqUl2X69z284N1es4OHeMPWEsVR/qr9aygDU1/JyOPsW7HFg/kgExkHgY8BURA6CXOp9YJPqLnX9Qi9+buj1pb+N5TaypKdPnSgXQ13te6HBYSGM2PFp7VB9J+mTrr6xwzKoljemaRNxRMugYx4w/m3eTiKvq24LKmmsiXrw8Wy0tro7qWZwSvNc+mzZj+fjVoWkr6Usj7kvf5v6xGHThaktzCRpXZIKIcaZ4NvVi2sQbENln7DMvMOA7Il5T0KtJtbmo3xpovxj5reX3eODzoIE3c0WZjo89ZnPAlg4TS+hIiLi1OHi5WPKZCzfWRBwPxloPdk8vN+M9lBwHGsr0jFiMtlYV5uo06F+ZJX99NvCccah8GcYBnBggBmaKAd8RMQZaGGthaflq9/uqLLtRE+268u16QBaBgjhlGbrawaoZs2oYYCEOiTgy6+m5tJq+tn2NJlbMip0UJelLuNgXFgKGe9k2e4YltYRjP9lMy3cOtMQAMTAfGPAdEUOIx9fesIgTBAqDKyHa5OTpG5hE2I2FfTp8U+WeoIEZl3BIej8SMZaZkwsqonrmamn61ObpP36ApXOkhlVf/3Q8CYQrltPS3zjuJERcWxr6xjRJQ5eDMzFADMwGA74kYtyaJeQpLi7qcBJkxooSHRd7wSWZ0+dyMYOW9HD9SMROMouF387O1ZowYfG8obFM9daXOD7p6YF3RptpcWYY1tIgcfOyj19e4f5wLPqRZZDAiAGfHV8yOxy3Z5kk2lI04EjESCMGXhIfBluyHA0X3yTi2A4o7++f/uMGmcG6uRuaygL6Nik51fofYrf4IPaGcs6Gzd8L32OLb8rbX/L25YwYIMftWUKspgW10w8Af9qA404SX1ycH8a+sVhVux1fyk2v1GnXFm8IIAWn8mbjh0s65MKOyrrgqzwLSmt0eG5RdBeXzKZec5326f61ekbsRqjiDwMte/mYATvlAUvpmhKSsF1e/PYXMbC/Y9vfviXimQAN11LW53crkKn9isqZ5Mc0sQW7k7xByJj9gqwzbUvYTvHp532fsQ/YBwsNAyRi/h9x0GxxoYGc7eHATQwQA/GMARIxiZhETAwQA8QAMeAhBkjEHgo/njU01o0zCGKAGCAGYoMBEjGJmJowMUAMEAPEgIcYIBF7KHxqm7HRNilnypkYIAbiGQMkYhIxNWFigBggBogBDzFAIvZQ+PGsobFunEEQA8QAMRAbDJCIScTUhIkBYoAYIAY8xACJ2EPhU9uMjbZJOVPOxAAxEM8YIBGTiKkJEwPEADFADHiIARKxh8KPZw2NdeMMghggBoiB2GCAREwipiZMDBADxAAx4CEGSMQeCp/aZmy0TcqZciYGiIF4xgCJmERMTZgYIAaIAWLAQwyQiD0UfjxraKwbZxDEADFADMQGAyRiEjE1YWKAGCAGiAEPMUAi9lD41DZjo21SzpQzMUAMxDMGSMQkYmrCxAAxQAwQAx5igETsofDjWUNj3TiDIAaIAWIgNhggEZOIqQkTA8QAMUAMeIgBErGHwqe2GRttk3KmnIkBYiCeMUAiJhFTEyYGiAFigBjwEAMkYg+FH88aGuvGGQQxQAwQA7HBAImYRExNmBggBogBYsBDDJCIPRQ+tc3YaJuUM+VMDBAD8YwBEjGJmJowMUAMEAPEgIcYIBF7KPx41tBYN84giAFigBiIDQZIxCRiasLEADFADBADHmKAROyh8KltxkbbpJwpZ2KAGIhnDJCIScTUhIkBYoAYIAY8xACJ2EPhx7OGxrpxBkEMEAPEQGwwQCImEVMTJgaIAWKAGPAQAyRiD4VPbTM22iblTDkTA8RAPGOAREwipiZMDBADxAAx4CEGSMQeCj+eNTTWjTMIYoAYIAZigwESMYmYmjAxQAwQA8SAhxggEXsofGqbsdE2KWfKmRggBuIZAyRiEjE1YWKAGCAGiAEPMUAi9lD48ayhsW6cQRADxAAxEBsMkIhJxNSEiQFigBggBjzEAInYQ+FT24yNtkk5U87EADEQzxggEZOIqQkTA8QAMUAMeIgBErGHwo9nDY114wyCGCAGiIHYYIBETCKmJkwMEAPEADHgIQZIxB4Kn9pmbLRNyplyJgaIgXjGAImYRExNmBggBogBYsBDDJCIPRR+PGtorBtnEMQAMUAMxAYDJGISMTVhYoAYIAaIAQ8xQCL2UPjUNmOjbVLOlDMxQAzEMwZIxCRiasLEADFADBADHmKAROyh8ONZQ2PdOIMgBogBYiA2GCARk4ipCXuEgZz8VeryjSfWs3RFDvshKVWN7T1hyaN3YBvl4REuSb6xIV9TziRigl0PeMkp2er42RvqxLmbAc+OPcd1HBM8Xr9X7H6s6s58Hfic/kotTsmOy/ra5XVx4rF69fFbdf/pxwlRX3v95+N7644DlkxevvlWpWTkUy4cn3yBARIxga6BnppZaA2CIAfzefTiMx1nPgbfmebZ+f6/q54P/xL0vJdeFJf1NdtZWdeqZdzTPxz39TXrPp/vS1esVCBh4O/I6WuUC8cnX2CAREyga6AvTk5XA1vG9IOZGgbEeCXi3K59qmjzeetZc/E7TciJQMQ37r+yZPv8w68V5D6f5JZoeR85dVUrKWlZ8a9UJZp8Wd/YLz2HkzmJmETsSgJnL9+LayI2wV208UzCEHFu0WpNNKO7j7nK32yfn95N+cTrtoif+oNtnX/iJhGTiF2JgEQ8Pz/A/UcvaiLmPqizjK/dfm7J6P3Jn7vikwThLDvKJfHk4lsixn5o38ZRdeDYRYUf/YXrj9Tug2dUcXmd6w9/RUaB2rBlXB07M6Gu3nqmsITWP7hTLUvNc0zzXkqW2jy8x3py8isUltlQ5umLdyzL0LF9Jy2/UD8cWNMObd+vTp6/qa7ffaEuTTy29s6wr+hWruRX19RlWaGibXgwu6iqb3Osq6Qx3ZkQ8eq6tWpk7LA6d/W+unzzqRrff0rVNnRGXKZZfjTvM5kRLy9tVWWjt9WaC9+pput/ryoPfqDyuveHrWtyTqUqG5lQjVd+UA2XvlclQ5fVksxVKr1qnSrccErldOwOmQeW+rHkf+fxhyHjof01azos/HT2DVlx8Q2ZXrvz3MJhW/cm1zwWJaUq7EWP7ztpYQ74AfaGdx60/J3ki74CZoEdYBVW3cB5aUWDAp5Hxg5Z2D96+roqKK1xLTunsEJt2rrbMvpDXfE76+obUouXpLmmMeszOLJXKyuF5bURpTHT8z3xyMjPfeZLIm7vHVQvPvpG/9BNwyS8gyDtoKhe066wn2ePi+9nr79S5VWNQWkyc0p1fAx+0O7t6ZFnfnFVUFqUv6alRxuu2NPh+8GzTxzTYcCE5bNTGvgdPH45on3JaIgYZUJBcSsThjfzuRcaLRGDPJ0MveC39u7v1ZLMckfZplf3qe7X/x2UtvPFf1hkjvR4t+NHvjEDFhmBFMXfzUUcxH/y6gtLqZK0posZtlN6IXwzrvl++OTVoD45c+murp8ZF78XELnpB+w6HbvaOLQrIJ6Z5vbDSZW+stixvmYbGlp7dR4gZTOM7yTZhYYB3xHx+k2j+geOAQIzRZxdBDndffKRFQZCMTs6Pac4KA1mz5gtyCDjdNzCJGKJd/7qA7XvyHn14P2f6bQgPLM8vCctzQhQFjCrwMxm594T1mwT5SEPezp8m4T49IMv1MHjl6z2QWGQeuw9fM4xrZlfNERsDtIgAOQPGZntxKzIzH8u36Mh4ryeg9NEOvlO1Z36UlUfeq3aHv2L9m97+M9BdYURWM/kOx2n8eqv1Oq9z9TaO/+k/cIRcXN7v+6DSPY/hYil3x6//NzqT6yQiB9c7Kva5SmK370nb9SxsxNq2/hhq08ePv9Upz15/lZAOpOI8XsQozIpC/2J1SD5hlJrlrtt/IgOA3ljNo12mmlgBIjZupnO/o4z1lIGVlfs4fwOLT/KJ7Hk4ysixlKuzIShzVdUNwf9wDGw4CyjCWST2Hr6RwLCNm6d1v5BsGY6OxHXNffocMwOxSoZA459YDJnBHsOndXpJH+0pbG1L8jfVBowaJrL11hax0CO8pwUB8lb3EiJuKVjQA+apy7cDphlYSkSS9QyqLrN/qXMmbrREHHHs3+bIs7Jd2pF2fRS/aIladZSs8yUs1sCL5UA6UpY8ZZApaL25Oc6LNSMGFsZIovOdVuC+s/efpOIb95/ZS0PS5y1nRt0XlAmxV/c7buOquJV9UH+wJrswaIuKWnTWytCxObeLGbjiIffjuAUqzHwM5UrzHTl6BGwh+0fqQtcOSOMdOs37wgIM+PhHbhBPDxotz2c34lFNOyv0P3lKyLG/pb8uAcGxyL+cZuDixOgZKACuZvhJhFj4DPD8I49NKmPfbkOe4IS1r1+a1Bae17ybc5IMFCLv7hQJCRflC/+Tm6kRCwKBWbcmMnb88KyvZQ5uutoULg9/ky+IyViLC0LmVYfDb5IY2lujQ7HHrBZl+5X/2WFORHtkswync4pXPIBOYossO8q/m6uScRllcHbH8Ac8rPPbN3yE39zZm7aDQgRT9x7qet25acZMJaVJT1mqfZyTSO0gpJqHVfSmKs8mGmLv5srvyvM4N3i0D/0AE/5JIZ8fEXEMqiBWCM1GjEvuXCadQDo5gCEvVIBv0nEGIDFX1xzMLQPyviWARvLy5ip47IDSevm4mYsSefURtRPws3ZjFN+kRKxKCogBSzxHzphPlfUoRNXdJm4TcqprNn6RUrE+esOa8LMqHc2dGp//CcrTvuTf9V1XZScodNVH32j/c16Yzk73NI07A9E/pGsDghmkcYsS95lZoqlX/EzXcxg65q6LaUP2wUwssIjt3oh36a26ZUVIWJsu0g+QrrYHhE/ED/SwnhQ/MztCTccAMtIh9m1pHNzZVsDqzhuceifGETDfgrdT74iYtkDjuaHXVHTogdOt+U0WDVjcMFjWpKaROx0d25tY5dOh3LsYMXAJ/mKi/1XLIHbl/0krQyG5tKihIkrxBmOFCMhYnMpXOoYykUfSD3m0o2UiMt33tOEujTf2Rq3eeI3VhwYZUkdlxU26HTlo7e1v4TDheV1OCLeNDy9CgJFzExvvu8/eiGo70PJNVHDcJrAbLf5LjiNxLrcTMf30IM+5RN/8vEVEctSVzRkYO7Vuu3pmft+OC4iQDeJGEc3xF/ccESMGW3vwIhlMWsfaDFIwfhG8hIXhjmIG0rZECOecMuDkRBxyao1mjCgBGzZti/kE+q4jbRhJm6kRAyjLFmaTsooCZIfysaRJIkjdVlR3q79SrZecUwH461wRIyVDelLKHCSv931OxGbK1GwMbDLh9/xRybsk5n3ia+IOJLZoh1MhaU1euB0O0aBfU8ZXEG+ksdsiVjygSvnMmU/VsqzG+NgqRBhoZb+JC2WPc0y7O+REHHy8pW67ViOtOcR6TeWUKF4mE+kaREvUiIGiQrJmoZaZlliBd398j91e5JW5Ot0lftfaP+AdHd/H5aI84qrtLywRGymd3qXpWkokU7htx9NWvmZe7qIh7yln809YMmjsXWdDm/t2qjzlqXpc1emLZVlGdpcQZFrKM3lallKdjtWJ2VH4qLOUv9dB07r+kWSlnFmTgiUnTey8xURm3uVWFKNBHT4RyIZENwGThm8EM/cl51LIjbrir1qqROsts0w7PtKmNPydXZeuQ7HcSgzrf1dziJj9m22yx5PDIacDNLscd2+Tct01B9L8G5xnfzz+45qokyv7HVNm9M2puPldQdax0u+IGCQdev9PwTkI0eXWm7+LsAf6WBx3f3Bn8MSMeKKvMKtSCDuTIkYy7mQ460HHwTVFfni0hXByVwRMY4CIk8ogaHwgvLDPeYxQ1wuEi4+w8PLlDKKXxn5ioixLCqDD0jGDZjmcQ7EMQ1M7FbB5r/FYEZg5jlfRAzjG2nH8M5DAWViL1rCMNia9cE7zvZKuJNVtRnftPB1stiVuBeuPdR5hrqZLNSFHqaRGeoXamldyjVd0xrabQ8X8U2raCdCzWoc0kRdcyywP2UPGCS9rCDwWBD+gEJm2qGsplEHMX6KhLBmSsSycoJtCDspAsOyPQFZzxURmxd54N3sH/t7KCwgrqmYmQaQ9nz4Hb/kwr6JvG98RcQABo5gCBFheS15+fR/11p/1H7zqTUImCDCPxJJGizFYTkW4SBszDgkzL4PPBsixowAdcXRJXMgwsUNZhvMPWnUCQOcXNyBmaxpEGTuT4Lo5Eyo2Vbz3fyrPigZIG4cs8Jj1smcZaNs7Kub+aDOMDAD8bgR9WyJePHyXH3ZBmamZcPXFa6iTF65WiWlFQTUx9wDrtjzxJrNor5YqpYjSiBVkLbZjvTKHk22mDVnNW5VSenFyiJh46KPcERsKlJ2zJjl4X2mRCzLycAmFDLBLK5ZNTGL8LkiYhC+3OYF7MFewFQCcKvY4LZ9lpKFMHtb5dtUbtF+8acb+cBOWSWWrHxHxNjzNWcDGIhAHiAJIVRo4yaQQW6y/yVxhOzkG0uBdmKbDRGbF4VIHe31dlvaNM8gIy3aZrYPfiZBm221v5s3Iklb4dpn2/b6YiDGviZcM918ETHqXbb9piZKmZ3Ctc98lxU1Bl5TOfkugICRpvKA8znX6sOTjmUgjVwUEo6IUVcxHIRxnV3m5vdMidi0bRD5y8oOvoUw8T5XRIx6w/rfjjWUa/cLRcRbjFMITlfHmvLhe2IRDvvLub98R8QAAm6bkgFOBilxQbj2GR3SYAZon7VJGpybdVpqw8xR4jhZXOMCfwm33/JVXd+ur9yUOOKC3LAXLLMcJ3Djbmy7soD0IAB7WU7pxQ/twvlTIQ6pg31JHPFLVzdY919LHNNFXSAn+7K/lGMuRSJdtHvEkk9+/wnV/uT/BJBl883/GUR2mC1jD9gkbOt98p31xw2Sn5OL/0A2y2h78EdrViwz7Y6n/zeoPHs+5jJuqP6Qma3bUr2sjsAQ0V4Gbl5zwgBsGkyiNrco5HeBOJKfXKeJPWDxE3sLp/PLsE0Qo0ETA3gHdmEI5qaQQZkVhQGGaFIeXecBnHJZGHLxJRELeLFshnO/2DsG+WJpWsLcXOyvQUvHMi8u3XAiYLe0M/EH2aI8DJaoJ8guFAHby4AygAsbYCWblh2bP1lH/TAzgvKBf/PB0rW9XvHyjWXrzPrNFpHirHA09Vqckq3wSBoh9qbrP2o/CbO7wB7IFeQ0n3cpA584Ytbes9lSwOYbr2Y7URb+OQll4/eF31q48s3rUjkbXhgkY2KC78596msiJiicQUG5RC8X84pLLF9HIkPMWGXG6PQvRpHksdDiyHWaODq30NrG9kT/u/KLzEjEERyl8AsY2M7wA0X9ubcKV1zigg+R19L8moBlbrcbuyQ+3fBypowoIz9hgERMItaE4ifgz7Stsvwse8v2/yau2DW9jzrTMpiOJEQM+AsDJGISMYk4CgyU77ijraOFjOHCeCt77ShlGYUsSTb+Ihv2t3t/k4g5cJA8ZoAB/BsTLK+XFdTpc8gcaNwHGsqGsiEG3DFAIp7BIExAuQOKsqFsiAFigBiIDgMkYhIxZ8TEADFADBADHmKAROyh8Kk1Rqc1Ul6UFzFADCxEDJCIScTUhIkBYoAYIAY8xEDMiXghajNsE7V0YoAYIAaIgZligETsoRY0005jOv7giQFigBhYOBggEZOIuSRFDBADxAAx4CEGSMQeCp8a7cLRaNmX7EtigBiYKQZIxCRiasLEADFADBADHmKAROyh8GeqPTEdNW9igBggBhYOBjwj4n1HzqsXH31j/Scr/twcfzTPv4JbOMDiIMG+JAaIAWIgMgx4RsTHzkzo/2KV/2S9dvs5l0c4QycGiAFigBjwFQY8I+LFyekqJS1PlVU2qtuPJjUp5+RX+KoDqDFGpjFSTpQTMUAMLFQMeEbEpkDrmro1Edc195CIqQ0TA8QAMUAM+AYDcUHEecVVmoh7B0Z8I3xTGeE7tX1igBggBvyJgbgg4uy8ck3E6zZsIxFTEyYGiAFigBjwDQZIxAS7b8DO2YY/Zxvsd/Z7vGMg7oh40/BuEgOVA2KAGCAGiAHfYCAuiDh5ebZemr408dg3wo93LY3140yCGCAGiIH5x0BcEDE6+vmHX1tk/PLNt2rpipUkY2rDxAAxQAwQA77AQNwQcff6rXpW/P7kz9XxszfU2N4TCv7UyOZfI6OMKWNigBggBrzBQNwQMQBQUFqjbt5/pQkZN27h+kuCwxtwUO6UOzFADBAD84+BuCHi5vZ+hWVpkC/cc1fvq90Hz6jeAR5n4g9h/n8IlDFlTAwQA15hIG6I+OkHX+iZcGFpDWfB3BsiBogBYoAY8AUG4oKI30vJ0iSMpWmvtBKWS42YGCAGiAFiINYYiAsiNm/W2rJtH4mYWjAxQAwQA8SAbzAQd0TMKy6pjcZaG2V5xBwxQAx4iYG4IGL89aH8JzGJmD8IL38QLJv4IwaIgVhjIC6IuLyqURPx2s4qNDFfAAAWeUlEQVQNvlmOiHVnszwOMMQAMUAMxB8G4oKIcUxJZsSlFQ0kYu4NEQPEADFADPgGA54R8cCWMXXj/iv15NX0saVnr79SSUszfCN8aqbxp5myT9gnxAAxEGsMeEbEx85M6FkwZsMPn3+qatZ0kISpBRMDxAAxQAz4CgOeETEu7Whs7VPYH07PKfaV0GOtbbE8avjEADFADMQvBjwjYoIifkHBvmHfEAPEADEQOwyQiLkExNUIYoAYIAaIAQ8xQCL2UPjUOGOncVLWlDUxQAzEKwZIxCRiasLEADFADBADHmKAROyh8ONVO2O9OHMgBogBYiB2GCARk4ipCRMDxAAxQAx4iAESsYfCp8YZO42TsqasiQFiIF4xEHMirj/9/ynzSVq2UvGhDIgBYoAYIAb8igESMRUBKkLEADFADBADHmKAROyh8P2q/bHdnPkQA8QAMTCNARIxiZiaMDFADBADxICHGCAReyh8aoTTGiFlQVkQA8SAXzFAIiYRUxMmBogBYoAY8BADJGIPhe9X7Y/t5syHGCAGiIFpDJCIScTUhIkBYoAYIAY8xACJ2EPhUyOc1ggpC8qCGCAG/IoBEjGJmJowMUAMEAPEgIcYIBF7KHy/an9sN2c+xAAxQAxMY4BETCKmJkwMEAPEADHgIQZIxB4KnxrhtEZIWVAWxAAx4FcMkIhJxNSEiQFigBggBjzEAInYQ+H7VftjuznzIQaIAWJgGgMkYhIxNWFigBggBogBDzFAIvZQ+NQIpzVCyoKyIAaIAb9igERMIqYmTAwQA8QAMeAhBkjEHgrfr9of282ZDzFADBAD0xggEZOIqQkTA8QAMUAMeIgBErGHwqdGOK0RUhaUBTFADPgVAyRiEjE1YWKAGCAGiAEPMUAi9lD4ftX+2G7OfIgBYoAYmMYAiZhETE2YGCAGiAFiwEMMkIg9FD41wmmNkLKgLIgBYsCvGCARk4ipCRMDxAAxQAx4iAESsYfC96v2x3Zz5kMMEAPEwDQGSMQkYmrCxAAxQAwQAx5igETsofCpEU5rhJQFZUEMEAN+xQCJmERMTZgYIAaIAWLAQwyQiD0Uvl+1P7abMx9igBggBqYxQCImEVMTJgaIAWKAGPAQAyRiD4VPjXBaI6QsKAtigBjwKwZIxCRiasLEADFADBADHmKAROyh8P2q/bHdnPkQA8QAMTCNARIxiZiaMDFADBADxICHGIg5Ef9VUqriQxkQA8QAMUAMEANTGCARUzGgYkQMEAPEADHgIQZIxB4Kn9ogZwTEADFADBADJGISMTVhYoAYIAaIAQ8xQCL2UPjUhKkJEwPEADFADJCIScTUhIkBYoAYIAY8xACJ2EPhUxOOH004J3+VunzjifUsXZHDQSnBfhftPZutvtt35Dz7LsH6juNgqiIRxylok1Oy1fGzN9SJczcDnh17jsflQFOx+7GqO/N14HP6K7U4JTsu62v/8V+ceKxeffxW3X/6cULU115/v3+XVjRY/Yc+rGvqZh/G6bjmd5y6tZ9EHKeATc0s1AMLBhd5Hr34LC4Hmc73/131fPiXoOe99KK4rK/5g6isa9Xy7ekfjvv6mnXn+/Sqyu1Hk1Y/Pnz+qVoUp79r9td0f1EW07IgEcfpD3Zxcroa2DKmH8zUQMbxSsS5XftU0ebz1rPm4neakBOBiG/cf2XJ9vmHXyvInQPE9ACRSLJo696kFSosVSdS3VnXxMTcXPUbiThOidjewWcv34trIjbrW7TxTMIQcW7Raj14j+4+xsE7QX4PJt7kffGSNPXs9VdWf968/4p9mcB9KX3qF5dEnCBgJRHPj8a8/+hFTcQpGfkcvBPk9+A2QA/vPKT7M6ewgv2Z4P3p1s8LzT8uiBj7oX0bR9WBYxfVtdvP1YXrj9Tug2dUcXmd6w8J2m9X35Daf/SCunzzqTp98Y7asn2/wgzHrZO6129Vm4f3qOr6dvVeSpZq7dqoDp24oq7dea4wIJdVNrqmRZ6wph3avl+dPH9TXb/7Ql2aeKyOnL6msK+4LDUvZNq6pi41tveE1Ta0D0ZXVfVtIdOY7ZgJEWMg2rR1t2XshTZCvpAZZGfmPdfvM5kRLy9tVWWjt9WaC9+pput/ryoPfqDyuveHrWdyTqUqG5lQjVd+UA2XvlclQ5fVksxVKr1qnSrccErldOwOmQeW+rHkf+fxhyHjiYyAm7WdGyy8nL/6wMIBMLBxaFdI7GHPEnvR4/tOWlgFfoDZ4Z0HLX/J38nF72P9plF1+ORVyzL46q1nCtbBvQMjKiXdHXeJVmZ+cZXauuOAZaQo4wB+M5B3pJgtLK/VRDy4bV9Efeokc/rNj+JLuTrL1XMibu8dVC8++kb/eMQoSdyxfSeDfkyZOaXq7pOPHNO8fPOtWrdhW1AaAECWrU5duK0m7r10TO+2t7SmpUchb6mX3X3w7BPHMjFww/LZHl++Dx6/HNG+ZLREDGKQMuzu7YeTKn1lsWN95+KHEi0RgzydDL3gt/bu79WSzHLHuqZX96nu1/8dlLbzxX9YZI70eHdrE2bAIhuQols88U/PKdbxJZ3dhUIp8U1XCN8eX75Bsk770/h9SBwn9/3Jn6uK6uaEL/PIqash2wnMpmWFN/xLWpqh84GibPYB351JgHLxXi6eEjG0fHNwwUwRGjDISYj22JmJgB8TtHxzUIOl5J5DZ61ZqkmUDa29AekANiFiKfPWgw+smcWVW890PRDHrn3jx20qC5hdYmazc+8Jde7qfYugH7z/s6DyUCbqL+U9/eALdfD4Jat9Zl32Hj7nmNb8gURDxNvGj+gyUW8McpiBYyYldYHx13xZlkZDxHk9B6eJdPKdqjv1pao+9Fq1PfoX7d/28J+D5AMjsJ7JdzpO49VfqdV7n6m1d/5J+4Uj4ub2fi2PSI6F4ayxyA8zWuB0ZOyQ1acmPnr6R4LqC8JE2ntP3qhjZyfUtvHD1qoPLHwlz5PnbwWlW795hxUObOP3AawjLRQHSQc3Jz94GTaRyhR84zdy5tJd67eF3xd+a9LOJ6++iAiz0m645m+I794TDvvAuQ88I2Is5crgBWtVJ60eswEsVZmdZ84QsERskkl5VaOetWLAM9Ph3SQ/LH2b4RhU5QePpWszDKQuYRgIzTC8oy2NrX1B/uYMCkRtLl+vyChQj19+buWLQTbc/qQMVOGspjHTFYUEZWJZ06wv5CltwSBvhs3VezRE3PHs36aIc/KdWlE2vVS/aEmatdQsM+XslsBVDpCuhBVvuRjQjtqTn+uwUDPi/sGdWhad67YE5OEki5S0PEtRTMsOnpmhb4FjyNZpdWT7rqOqeFV9UBnAL5ZhpU9Qhlk2lrNhPY+VFdMf7xU1LTodth3s4YlUJpbZm9r6An7P0h4oOyIfKE/i7+ZCwZb4bnHo70wIlIs3cvGMiM0f18DgWNgflwAEMxH5kYHMxF9czCokvKCkOiBciBgKgH1gQ1xJZ5/RdPYN6TDsM0tZ4VxzZop9Lnt8lCNlYi/XHm5+R0rEpvGRvf3Iz5zd49iOWcZcvUdKxFhaFjKtPhp8kcbS3Bodjj1gs37dr/7LCnMi2iWZZTqdU7jkA6IS+eNCCPGfqQsylPyiycOcmUdjN4AyQPooM1or4UQqE5fbiFwxSw4nW1yEI/F5S5o3xBKujxge2C+eEbEsrWH2Zl8KDtVJWJ7Cjwxar1M8aNXyI7Rrz0LE2B+2pwUxSzr7LNy8tQdLZ5iVL12xMigPe57mgODURrNMpxmNmV+kRGwqKpjlHzphPlcs4zS0AW2FQmKWMVfvkRJx/rrDmjAz6jc51qX98Z+sOO1P/lWHL0rO0OmqjwavfKAdWM4OtzQN+wPpcxgKRdp+EAPOrAIn6Lejp69bj2ynIE8oPPb8MPvFrU9QurAdIenkVi+kA37t6fCNlQ4oblAesJ8saQXTbjeCJVqZWDXASg22fmAEJ+2UfoKi6SQf0w+Yl/j2FSEzHt8DyYDy8E4enhGxDFpYno0GALLsCmJySleyao3+EW4aDpxlyqAFYy2ntPLjxWBnDzf3qiQelolhver2YxdSDLVXJe3BYGwv0/yOlIiFZKWO4VwnBcEsdybvkRJx+c57mlCX5tc6tr954jdWHBhlSV2WFTbodOWjzn0Jy+twRAx8iHzsSpuUZXdBvrKlImmd3OTlgVd7wthPtiKc4ouffeUEyhq2YCTczXWyUUikMrHHLReruLUR/lAu7X1i/zZtIeYD3/by+O0dgS0U2XtGxDKzBSFHKkxYlcqP1G7EJXngBy1x7Bc0CBFjpirxTVfSORExftDYx5J6S1y4IFMY0Jh54R371AgPpWyIYUm4ZeJIiViIHWVu2bbv/2/v7FbsKKIo/EAZiGOC0YkmE/MzITNmmMQx/5CoGEQxRg0hKApB8Sp4EQwMKFFILhSZV/AFBL0RxCu9E4S8wpHvyGp211SfPmdmmuom6+JQfbrrd9fqWruq9q6e+Hv35ifZPbm0HbP+n5aIMcrS0vTc88e3yI9ycUlSHNVj/8nL1b3jN+5n02G81UbE0d4AtzTl3xRGS3TkzKoORl64xPHjoxHCRVwxOXJitdq35zlEgY0C7jWkY3asdLjUxfK/+vr76hlYYTZ88/bdqkwZLmL0FdMNqUyUDbUDOTC7R8GlTyRbyQd3w9jO3LUUnq5WfHJl+p7JeCcYKEbE08wWcw3TbKTJNWF57UI1cKVuTDsh4lgX+efq2EkNEqkxDnXk2aQBQWnb3GemJWJmRuSZMxiKbWi7RvGIv7b48fm0RAyJimSjoVbMS1bQV3/8pxqA5/YvVulWPv2hul9L9+3vrUR8+NgrFVZYAo3pc9dabQBHuVUQyEP9GYmYvHU/twe8fvGN6nkkYtz0lA7yzs3upOylRDykMqNChO1IKvu4hdNGxCzFS2Z4VKR5+b8Js48YKEbEvFB6YbAunlY4Mk5psh6OLlGrZ6/U8t0tIo51xd1K7Xj7xp1aedF4JzdwHzx8skrLnljMN72WLzIzsdyArPi4uFAfyH9SPMXPhVgQq00KJx0ckeax+ObnFVEeWNnqRqb4L126XcU7fLVuHa84EDBkffHhHzX5yHXp/MZvtfukw+L66k//thIxcWXp3LYiAbFKFjnfdvKK2xeRiDkshLRNdg3McJV3JGKudf/02bolP+WxQqQVkJSIh1QmnghqZw6zeEPoeRsRx3cq9YxAZv5ZBn3EQDEijge0QzJNwkndOdjf1UvJC5qm0xdYiJOSXxdEjPGN6sPxerE+r1//oHrGYBufcc1AobTp3mAaN1r4TjoBLC6fcp3mE//nDpDgOadvqV4KcxbqMa94Ha2hm/ZwiR+tonOEurD+XkXUq1/U/bS1BwxJzx+puwXxAQrNtCdZTVMH/MBpY5viEmdlKDuxvVxzCpxkRRiJWCsnLC2nRINRl7YnSBeJGJc45ZkqeZTJ1oKep0Q8pDI5HU/tyBnNaWWJOG1EHJXIVBFP+8z/Tcp9wUAxIkYAnJajF5BDJ6KBy/hD7RuPxwdiRGFFNyOWCnWkJQNcfKFz+8DbJWJm2dQV1yUGZNWHsmMb8PnUM0KITmUyc4kGQXE5jj0tltRi2vQ6fqqP5WeIG0tafrFOyEH7bZTJPnEc/PFXZm9Se8hpOfzfKRHv2XeoOmyDmenS+w9GHEW598Xl0dxzdZezuAd86uNH49ksdWCpWi5KkCqkHet6YOVaRbbMmhfWb4zmDhwbjUk4HPTRRsRRkaLdsYz0WkvTYBbfcskVH3j1s/AciTi61KGQ7d33v8U9J0VFn1fSRiKOfuj0KYaIqhPbLiqLMCXiIZWJ7YXawp64Vsh4f6J/P3HaiFiKOH3V9k5Jlg4njz2WT/fyKUrEL59Yrc0GeNEY0LQPzP+cUVZ6HF6cUZCG5caFQ0vVoCUgabDMkTRxSMsvNdZiNqJnhOSTltm0tBl9kElL22L7uBcJWnXNhdEaNNYnnW1z0ENaBgNTeg+SzpWzUyImz6UPNyqi1OyUMJ35zh9drx9TufmkRsCkWfks7+98+u5mtgzS6KCQNiKmrjLAyx0CE+UTtz3Ul1ra5r+MhLiORAzOY39xHUldihP3IxFTNqdMxbTgTsvRhMJhSsRDKhNFUn2gtkb5xGeTiDh6TKTvROxHX3dPLJbxbDIuSsR0FicSyadYL6FCZn65oypJhy+mBiTFJ4QQm86k1cudI3fyVD6pBTQnbcndSnEUUgf2gjXLyQGQ/T0pAUpHyACTO1Eslwf3mCFgYRsHJvJJl8SJy7J8XNKL5VLne/cfNn5UIy7vKd0se8Sq/+JbX44uP/qrRpbnNn7dQv7MltkDjoQ9vt58Mv5wg/LLhXwDOZZx6bs/x7NizbSvPP57S3lpPnE5v60/kHWKOxQcPjgS80nxwDJzDgMQbSTNdIsCQo+zW/UHeYErWVXn3JeGVCZL0prNqo2EKEes+kjhmeS+pHGE/tkOXlNc+P9sZGJ5bV9exYlYnccyHy4X7B1DvixN61lTyNITLzBpIMs4C2lKs5P7DK7sSzNYUuaJ5VcnEnBaFgMKBzZgJZs7JjGNvxv/IW++SMPHLJArMubebuS923mwbP3CmXfGRIqv8Cz573n24Iif0ojYX3vwS3VPz9IQ7Gk2y55x+jz9D87YKmB7IbenmcbXf+TOrI2+gPBn6Qfwsnbu2hh7s2BnaGUeOro8On/l+vjgk1SZkRxzITYMIvCcYppL43vbJw7Lbndl1xsidsfubsc+zfKMR1yyfD2NLKJhlI9FHB4WdYY6q16zKDjTYMNxhoeHofWZibjFSGpoHfo01ffMvZ9HHHHJAR9q9zOLq7Vl7qYTuxTfoQdZY8AYKI0BE7GJuCKx0mCctXwtP2tvOf028ak7W92MZi3D8T1IGwPGQNcYMBGbiAdLxCdvfVNZR4uMCTHeOnjho8G2q+uX3vmbWIyBfmHARGwiHjxh8TUmLK/nj6xVfsgeaPo10Lg/3B/GQDMGTMQm4sETsV/w5hfcsrFsjIH+Y8BEbCI2ERsDxoAxYAwUxICJuKDwran2X1N1H7mPjAFjoGsMmIhNxNaEjQFjwBgwBgpiwERcUPhda1nO35q8MWAMGAP9x4CJ2ERsTdgYMAaMAWOgIAZMxAWFb021/5qq+8h9ZAwYA11jwERsIrYmbAwYA8aAMVAQAybigsLvWsty/tbkjQFjwBjoPwZMxCZia8LGgDFgDBgDBTFgIi4ofGuq/ddU3UfuI2PAGOgaAyZiE7E1YWPAGDAGjIGCGDARFxR+11qW87cmbwwYA8ZA/zFgIjYRWxM2BowBY8AYKIgBE3FB4VtT7b+m6j5yHxkDxkDXGDARm4itCRsDxoAxYAwUxICJuKDwu9aynL81eWPAGDAG+o8BE7GJ2JqwMWAMGAPGQEEMmIgLCt+aav81VfeR+8gYMAa6xoCJ2ERsTdgYMAaMAWOgIAZMxAWF37WW5fytyRsDxoAx0H8MmIhNxNaEjQFjwBgwBgpiwERcUPjWVPuvqbqP3EfGgDHQNQZMxCZia8LGgDFgDBgDBTFgIi4o/K61LOdvTd4YMAaMgf5jwERsIrYmbAwYA8aAMVAQAybigsK3ptp/TdV95D4yBoyBrjFgIjYRWxM2BowBY8AYKIgBE3FB4XetZTl/a/LGgDFgDPQfAyZiE7E1YWPAGDAGjIGCGPgPbO4i+VLHuuMAAAAASUVORK5CYII=;" vertex="1" parent="1">
                    <mxGeometry x="647.08" y="440" width="287.92" height="270" as="geometry"/>
                </mxCell>
            </root>
        </mxGraphModel>
    </diagram>
</mxfile>